<svg xmlns="http://www.w3.org/2000/svg" width="430" height="240" viewBox="0 0 430 240">
  <defs>
    <linearGradient id="bg2" x1="0" y1="0" x2="1" y2="0">
      <stop offset="0" stop-color="#092462"/>
      <stop offset=".52" stop-color="#155ee8"/>
      <stop offset="1" stop-color="#eaf2ff"/>
    </linearGradient>
    <filter id="soft2" x="-20%" y="-20%" width="140%" height="140%">
      <feDropShadow dx="0" dy="8" stdDeviation="10" flood-color="#05163d" flood-opacity=".28"/>
    </filter>
  </defs>
  <rect width="430" height="240" rx="22" fill="url(#bg2)"/>
  <path d="M0 166 C64 126 112 132 176 103 C246 72 309 36 430 54 L430 240 L0 240Z" fill="#fff" opacity=".94"/>
  <path d="M316 0 C350 38 374 76 430 97 L430 0Z" fill="#ffbe35"/>
  <g opacity=".16" stroke="#fff" stroke-width="2">
    <path d="M27 39 H217"/>
    <path d="M27 67 H163"/>
    <path d="M27 95 H202"/>
  </g>
  <text x="28" y="56" font-family="Microsoft YaHei, PingFang SC, Arial" font-size="19" font-weight="800" fill="#fff">贰拾肆号电商</text>
  <text x="28" y="103" font-family="Microsoft YaHei, PingFang SC, Arial" font-size="33" font-weight="900" fill="#fff">一站式电商服务</text>
  <text x="30" y="132" font-family="Microsoft YaHei, PingFang SC, Arial" font-size="15" font-weight="700" fill="#dbe8ff">店铺转让 · 入驻指导 · 网店评估 · 商标服务</text>
  <g transform="translate(42 164)" filter="url(#soft2)">
    <g>
      <circle cx="0" cy="0" r="27" fill="#fff"/>
      <rect x="-13" y="-12" width="26" height="24" rx="4" fill="#1358d6"/>
      <path d="M-16 -11 H16 L10 -20 H-10Z" fill="#ffc33d"/>
      <text x="-28" y="48" font-family="Microsoft YaHei, PingFang SC, Arial" font-size="12" font-weight="800" fill="#20365f">店铺转让</text>
    </g>
    <g transform="translate(92 0)">
      <circle cx="0" cy="0" r="27" fill="#fff"/>
      <path d="M-14 8 L0 -14 L14 8Z" fill="#ffc33d"/>
      <circle cx="0" cy="8" r="8" fill="#1358d6"/>
      <text x="-24" y="48" font-family="Microsoft YaHei, PingFang SC, Arial" font-size="12" font-weight="800" fill="#20365f">入驻指导</text>
    </g>
    <g transform="translate(184 0)">
      <circle cx="0" cy="0" r="27" fill="#fff"/>
      <path d="M-15 12 H15 V-8 H-15Z" fill="#1358d6"/>
      <path d="M-9 5 L-2 -3 L5 4 L13 -10" stroke="#ffc33d" stroke-width="4" fill="none" stroke-linecap="round"/>
      <text x="-24" y="48" font-family="Microsoft YaHei, PingFang SC, Arial" font-size="12" font-weight="800" fill="#20365f">网店评估</text>
    </g>
    <g transform="translate(276 0)">
      <circle cx="0" cy="0" r="27" fill="#fff"/>
      <path d="M-12 10 H12 V-8 H-12Z" fill="#ffc33d"/>
      <path d="M-8 -8 C-7 -19 7 -19 8 -8" stroke="#1358d6" stroke-width="4" fill="none"/>
      <text x="-24" y="48" font-family="Microsoft YaHei, PingFang SC, Arial" font-size="12" font-weight="800" fill="#20365f">电商咨询</text>
    </g>
  </g>
</svg>
